<svg version="1.1" id="svg2477" xmlns="http://www.w3.org/2000/svg" x="0" y="0" viewBox="0 0 1000 260.6" style="enable-background:new 0 0 1000 260.6" xml:space="preserve"><style>.st0{fill:#28316b}.st1{fill:#50b4e9}.st2{fill:#fff}</style><g id="layer1" transform="translate(-14.48 -12.468)"><g id="g1222" transform="matrix(2.447 0 0 -2.447 79.174 33.624)"><path id="path1224" class="st0" d="M123.2-40.3c0 27-33.5 48.9-74.8 48.9s-74.8-22-74.8-48.9v-2.9C-26.4-71.8 2.9-95 48.4-95c45.8 0 74.8 23.2 74.8 51.8v2.9z"/></g><g id="g1226" transform="matrix(2.447 0 0 -2.447 77.933 33.615)"><path id="path1228" class="st1" d="M120.9-40.3c0-25.4-32.2-46-71.9-46-39.8 0-72 20.6-72 46s32.2 46 71.9 46c39.8.1 72-20.6 72-46"/></g><g id="g1230" transform="matrix(2.447 0 0 -2.447 36.507 27.337)"><path id="path1232" class="st2" d="M42-28.3c0-.1-.8-.8-.3-1.4 1.1-1.5 4.6-2.3 8.2-1.5 2.1.5 4.8 2.6 7.4 4.7 2.8 2.3 5.7 4.5 8.5 5.4 3 1 4.9.5 6.2.2 1.4-.4 3-1.3 5.6-3.3 4.9-3.7 24.7-21 28.1-24 2.8 1.2 15 6.5 31.6 10.2-1.4 8.9-6.8 17-15 23.6C111-19.2 97-21.7 83.4-15c-.1 0-7.4 3.5-14.7 3.3-10.8-.2-15.5-4.9-20.5-9.9L42-28.3z"/></g><g id="g1234" transform="matrix(2.447 0 0 -2.447 63.741 36.74)"><path id="path1236" class="st2" d="M93.8-46.2c-.2.2-23.2 20.3-28.5 24.3-3 2.3-4.7 2.8-6.5 3.1-.9.1-2.2-.1-3.1-.3-2.4-.7-5.6-2.8-8.4-5-2.9-2.3-5.7-4.5-8.2-5.1-3.3-.7-7.2.1-9.1 1.4-.7.5-1.3 1.1-1.5 1.6-.7 1.6.6 2.8.8 3l6.4 6.9 2.2 2.2c-2-.3-3.9-.8-5.8-1.3-2.3-.7-4.5-1.3-6.8-1.3-.9 0-5.9.8-6.9 1.1C12.7-14.1 7.7-12.5.1-9c-9-6.7-15.1-15.1-16.8-24.4 1.3-.3 3.4-1 4.3-1.2 20.5-4.6 26.8-9.2 28-10.2 1.3 1.4 3.1 2.3 5.1 2.3 2.3 0 4.3-1.1 5.5-2.9 1.2.9 2.8 1.7 4.9 1.7.9 0 1.9-.2 2.9-.5 2.3-.8 3.5-2.3 4.1-3.7.8.4 1.7.6 2.8.6 1.1 0 2.3-.2 3.4-.7 3.8-1.6 4.4-5.3 4-8.1h.8c4.5 0 8.1-3.6 8.1-8.1 0-1.4-.4-2.7-1-3.8 1.2-.7 4.3-2.2 7-1.9 2.2.3 3 1 3.3 1.4.2.3.4.6.2.9l-5.8 6.4s-1 .9-.6 1.2c.3.4.9-.2 1.3-.5 2.9-2.5 6.5-6.2 6.5-6.2.1 0 .3-.5 1.6-.7 1.1-.2 3.2-.1 4.6 1.1.4.3.7.7 1 1l-.1-.1c1.5 1.9-.2 3.8-.2 3.8L68.5-54s-1 .9-.6 1.3c.3.3.9-.2 1.3-.5 2.1-1.8 5.2-4.8 8-7.6.6-.4 3.1-2 6.5.2 2 1.3 2.4 3 2.4 4.2-.1 1.6-1.4 2.8-1.4 2.8l-9.2 9.2s-1 .8-.6 1.3c.3.4.9-.2 1.3-.5 2.9-2.5 10.9-9.7 10.9-9.7.1-.1 2.9-2 6.2.1 1.2.8 2 1.9 2.1 3.3.1 2.3-1.6 3.7-1.6 3.7"/></g><g id="g1238" transform="matrix(2.447 0 0 -2.447 44.44 41.811)"><path id="path1240" class="st2" d="M57.1-55.9c-1.4 0-3-.8-3.2-.7-.1.1.1.6.2 1 .1.3 2 6-2.6 7.9-3.5 1.5-5.6-.2-6.4-1-.2-.2-.3-.2-.3.1-.1 1-.5 3.8-3.5 4.7-4.3 1.3-7.1-1.7-7.8-2.8-.3 2.5-2.4 4.4-4.9 4.4-2.8 0-5-2.2-5-5s2.2-5 5-5c1.3 0 2.6.5 3.5 1.4v-.2c-.2-1.2-.6-5.8 4.1-7.6 1.9-.7 3.5-.2 4.8.8.4.3.5.2.4-.2-.2-1.2 0-3.6 3.5-5.1 2.6-1.1 4.2 0 5.2 1 .4.4.6.3.6-.3.1-3.4 2.9-6 6.3-6 3.5 0 6.3 2.8 6.3 6.3.1 3.5-2.7 6.3-6.2 6.3"/></g><g id="g1242" transform="matrix(2.447 0 0 -2.447 44.44 47.076)"><path id="path1244" class="st0" d="M57.1-65.9c-3.2 0-5.7 2.5-5.8 5.6 0 .3 0 1-.6 1-.2 0-.5-.1-.7-.4-.8-.7-1.7-1.3-3-1.3-.6 0-1.2.1-1.9.4-3.3 1.4-3.4 3.7-3.2 4.6 0 .2 0 .5-.1.7l-.2.2h-.2c-.2 0-.4-.1-.6-.2-1-.7-1.9-1-2.8-1-.5 0-1 .1-1.6.3-4.4 1.7-4 5.9-3.8 7.1 0 .3 0 .4-.2.6l-.4.2-.3-.3c-.9-.8-2-1.3-3.2-1.3-2.5 0-4.6 2-4.6 4.6s2.1 4.6 4.6 4.6c2.3 0 4.2-1.7 4.5-4l.2-1.2.7 1c.1.1 1.9 2.9 5.3 2.9.6 0 1.3-.1 2-.3 2.7-.8 3.2-3.3 3.2-4.3.1-.6.5-.6.6-.6.2 0 .4.1.5.3.5.5 1.6 1.4 3.4 1.4.8 0 1.6-.2 2.5-.6 4.3-1.8 2.3-7.3 2.3-7.4-.4-.9-.4-1.3 0-1.5l.2-.1h.1c.2 0 .4.1.8.2.6.2 1.5.5 2.3.5 3.2 0 5.9-2.7 5.9-5.9-.1-3.2-2.7-5.8-5.9-5.8m45.5 26.3c-7.1 6.2-23.5 20.5-27.9 23.8-2.5 1.9-4.3 2.9-5.8 3.4-.7.2-1.7.4-2.9.4-1.1 0-2.3-.2-3.6-.6-2.9-.9-5.7-3.2-8.5-5.4l-.1-.1c-2.6-2-5.2-4.2-7.3-4.6-.9-.2-1.8-.3-2.7-.3-2.3 0-4.3.7-5 1.6-.1.2 0 .4.2.8v.1l6.2 6.7c4.9 4.9 9.5 9.5 20.1 9.8h.5c6.6 0 13.2-3 14-3.3 6.2-3 12.6-4.6 19.1-4.6 6.7 0 13.6 1.7 20.9 5-.8.7-1.7 1.3-2.5 2C111-7.7 104.9-9.1 99-9.1c-6 0-12 1.5-17.8 4.3-.3.1-7.6 3.6-15.2 3.6h-.6c-8.9-.2-14-3.4-17.3-6.2-3.3-.1-6.1-.9-8.7-1.6-2.3-.6-4.2-1.2-6.1-1.2-.8 0-2.2.1-2.3.1C28.8-10 17.8-7.3 9-4c-.9-.6-1.8-1.3-2.6-2 9.1-3.7 20.3-6.6 23.8-6.9 1-.1 2-.2 3.1-.2 2.3 0 4.6.7 6.9 1.3 1.3.4 2.8.8 4.3 1.1l-1.2-1.2-6.3-6.9c-.5-.5-1.6-1.9-.9-3.5.3-.7.9-1.3 1.7-1.9 1.5-1 4.2-1.7 6.7-1.7 1 0 1.9.1 2.7.3 2.7.6 5.4 2.8 8.4 5.2 2.4 1.9 5.7 4.2 8.3 4.9.7.2 1.6.3 2.3.3h.6c1.7-.2 3.3-.8 6.3-3 5.2-3.9 28.3-24.1 28.5-24.3 0 0 1.5-1.3 1.4-3.4-.1-1.2-.7-2.2-1.8-2.9-1-.6-2-.9-3-.9-1.5 0-2.6.7-2.7.8-.1.1-8 7.3-10.9 9.7-.5.4-.9.7-1.4.7-.2 0-.5-.1-.6-.3-.5-.6.1-1.3.7-1.9l9.2-9.3s1.1-1.1 1.3-2.5c.1-1.5-.7-2.8-2.2-3.8-1.1-.7-2.2-1.1-3.3-1.1-1.4 0-2.4.6-2.6.8l-1.3 1.3c-2.4 2.4-4.9 4.8-6.7 6.4-.7.5-1.2.9-1.7.9-.2 0-.4-.1-.6-.2-.2-.2-.4-.6.2-1.3.2-.3.5-.5.5-.5l6.7-7.6c.1-.1 1.4-1.7.1-3.2l-.2-.3-.6-.6c-1.1-.9-2.7-1-3.3-1-.3 0-.6 0-.9.1-.7.1-1.1.3-1.3.6l-.1.1c-.4.4-3.8 3.8-6.6 6.2-.4.3-.8.7-1.3.7-.2 0-.4-.1-.6-.3-.6-.6.3-1.5.6-1.9l5.7-6.3c0-.1-.1-.2-.2-.4-.2-.3-.9-1-3-1.2h-.8c-2.2 0-4.4 1-5.6 1.7.5 1.1.8 2.4.8 3.6 0 4.7-3.8 8.6-8.6 8.6h-.3c.2 2.2-.1 6.2-4.3 8-1.2.5-2.4.8-3.6.8-.9 0-1.8-.2-2.6-.5-.9 1.7-2.3 2.9-4.2 3.6-.9.1-1.9.3-3 .3-1.7 0-3.4-.5-4.8-1.5-1.4 1.7-3.5 2.7-5.6 2.7-1.9 0-3.7-.8-5.1-2.1-1.8 1.4-8.9 5.9-27.8 10.2-.9.2-3 .8-4.3 1.2-.2-1-.4-2.1-.5-3.1 0 0 3.5-.8 4.2-1 19.4-4.3 25.8-8.8 26.9-9.6-.4-.9-.6-1.8-.6-2.8 0-4 3.3-7.3 7.3-7.3.4 0 .9 0 1.3.1.6-2.9 2.5-5.2 5.5-6.3.9-.3 1.7-.5 2.6-.5.6 0 1.1.1 1.7.2.5-1.4 1.8-3.1 4.5-4.2 1-.4 1.9-.6 2.9-.6.8 0 1.5.1 2.2.4 1.3-3.2 4.4-5.3 7.9-5.3 2.3 0 4.5.9 6.1 2.6 1.4-.8 4.3-2.2 7.2-2.2.4 0 .7 0 1.1.1 2.9.4 4.3 1.5 4.9 2.4.1.2.2.3.3.5.7-.2 1.4-.4 2.3-.4 1.6 0 3.1.5 4.7 1.7 1.5 1.1 2.6 2.7 2.8 4v.1c.5-.1 1-.2 1.6-.2 1.7 0 3.3.5 4.8 1.5 3 2 3.5 4.5 3.5 6.2.5-.1 1.1-.2 1.6-.2 1.5 0 3.1.5 4.5 1.4 1.9 1.2 3 3 3.1 5.1.1 1.4-.2 2.9-1 4.1 5 2.2 16.4 6.3 29.9 9.4-.1 1-.2 2.1-.4 3.1-16.4-3.7-28.6-8.9-31.6-10.3"/></g><g id="g1246" transform="matrix(2.447 0 0 -2.447 186.497 28.537)"><path id="path1248" class="st0" d="M327.6-30.6c-1.3-1.7-3.2-2.6-5.6-2.6-2.4 0-4.3.9-5.6 2.6-1.3 1.7-2 4.2-2 7.4s.7 5.7 2 7.4c1.3 1.7 3.2 2.6 5.6 2.6 2.5 0 4.3-.9 5.6-2.6 1.3-1.7 2-4.2 2-7.4s-.7-5.7-2-7.4m6.7 19.4c-2.7 3.4-6.8 5.1-12.3 5.1s-9.6-1.7-12.3-5.1c-2.7-3.4-4.1-7.4-4.1-12 0-4.7 1.3-8.7 4.1-12 2.7-3.3 6.8-5 12.3-5s9.6 1.7 12.3 5c2.7 3.3 4 7.3 4 12 .1 4.6-1.3 8.6-4 12"/></g><g id="g1250" transform="matrix(2.447 0 0 -2.447 157.711 26.828)"><path id="path1252" class="st0" d="M272.8-27.4c-.1-2.8-.9-4.7-2.4-5.8-1.5-1.1-3.2-1.6-5.1-1.6-1.2 0-2.1.3-2.9 1-.8.6-1.2 1.7-1.2 3.1 0 1.6.7 2.8 2 3.6.8.4 2.1.8 3.9 1.1l1.9.4c.9.2 1.7.4 2.2.6.6.2 1.1.5 1.6.8v-3.2zm4.3 18.3c-2.7 1.4-5.9 2.1-9.4 2.1-5.4 0-9.3-1.4-11.5-4.2-1.4-1.8-2.2-4.1-2.4-6.9h8.1c.2 1.2.6 2.2 1.2 2.9.8 1 2.3 1.5 4.3 1.5 1.8 0 3.2-.2 4.1-.8.9-.5 1.4-1.4 1.4-2.7 0-1.1-.6-1.9-1.8-2.4-.7-.3-1.8-.5-3.4-.7l-2.9-.3c-3.3-.4-5.7-1.1-7.4-2.1-3.1-1.8-4.6-4.6-4.6-8.6 0-3 .9-5.4 2.9-7.1 1.9-1.7 4.3-2.4 7.2-2.5 18.3-.8 18.1 9.7 18.3 11.8V-17c0 3.9-1.4 6.5-4.1 7.9"/></g><g id="g1254" transform="matrix(2.447 0 0 -2.447 141.493 21.122)"><path id="path1256" class="st0" d="M241.9-16.5c2.1 0 3.6-.6 4.6-1.9.7-1 1.1-2 1.3-3.2h9c-.5 4.6-2.1 7.7-4.8 9.5-2.7 1.8-6.2 2.7-10.4 2.7-5 0-8.9-1.5-11.7-4.6-2.8-3.1-4.2-7.3-4.2-12.8 0-4.9 1.3-8.8 3.8-11.9 2.6-3.1 6.6-4.6 12-4.6s9.5 1.8 12.3 5.5c1.7 2.3 2.7 4.7 2.9 7.2h-9c-.2-1.7-.7-3.1-1.6-4.1-.9-1-2.3-1.6-4.4-1.6-2.9 0-4.9 1.3-6 4-.6 1.4-.9 3.3-.9 5.6 0 2.5.3 4.4.9 5.9 1.2 2.9 3.2 4.3 6.2 4.3"/></g><g id="g1258" transform="matrix(2.447 0 0 -2.447 133.442 18.063)"><path id="path1260" class="st0" d="M226.6-10.7c-18.6 0-17.5-16.4-17.5-16.4v-16.7h8.4v15.7c0 2.6.3 4.5 1 5.7 1.2 2.2 3.4 3.3 6.8 3.3h1c.4 0 .9-.1 1.4-.1v8.6c-.4 0-.6 0-.7.1-.1-.2-.3-.2-.4-.2"/></g><g id="g1262" transform="matrix(2.447 0 0 -2.447 115.171 21.834)"><path id="path1264" class="st0" d="M191.8-17.8c1.2 1.2 2.8 1.8 5 1.8 2 0 3.6-.6 5-1.7 1.3-1.2 2.1-2.8 2.2-5.1h-14.4c.2 2.1 1 3.7 2.2 5m11.3-15.7c-.4-.5-.7-.9-1.1-1.3-1.2-1-2.8-1.3-4.7-1.3-1.8 0-3.2.3-4.5 1.1-2.1 1.3-3.3 3.5-3.4 6.7h23.3c0 2.8-.1 4.9-.3 6.4-.4 2.5-1.2 4.7-2.5 6.6-1.5 2.2-3.3 3.7-5.5 4.7s-4.7 1.5-7.5 1.5c-4.7 0-8.5-1.5-11.5-4.4-2.9-3-4.4-7.2-4.4-12.8 0-5.9 1.6-10.2 4.9-12.8 3.3-2.6 7-3.9 11.3-3.9 5.2 0 9.2 1.6 12 4.7 1.6 1.6 2.5 3.3 2.9 4.9h-9z"/></g><g id="g1266" transform="matrix(2.447 0 0 -2.447 109.013 32.384)"><path id="path1268" class="st0" d="M180.1-37.9h-7.7v19.4c0 1.8-.6 6-5.7 6-3.4 0-5.8-2.4-5.8-6v-19.4h-7.7v19.4c0 1.8-.5 6-5.6 6-3.4 0-5.8-2.4-5.8-6v-19.4H134v19.2c0 8 5.3 14 13.5 14 4.1 0 7.4-1.7 9.6-4.5 2.3 2.7 5.7 4.5 9.6 4.5 8.4 0 13.4-5.8 13.4-14v-19.2z"/></g><g id="g1270" transform="matrix(2.447 0 0 -2.447 171.552 28.566)"><path id="path1272" class="st0" d="M299.2-30.7c-1.2-1.8-3-2.6-5.4-2.6-2.4 0-4.1.9-5.3 2.7-1.2 1.8-1.7 4.4-1.7 7.3 0 2.7.6 5 1.7 6.9 1.1 1.8 2.9 2.8 5.4 2.8 1.6 0 3-.5 4.2-1.5 2-1.7 3-4.7 3-8.6-.1-2.9-.7-5.2-1.9-7m10.1 34.5s-8.5.9-8.5-5.9v-9c-.9 1.5-2.2 2.7-3.7 3.5-1.5.9-3.2 1.3-5.2 1.3-4.2 0-7.6-1.6-10.1-4.7s-3.8-7.7-3.8-13.1c0-4.7 1.3-8.6 3.8-11.6 2.6-3 7.6-4.3 12-4.3 15.5 0 15.3 13.3 15.3 13.3l.2 30.5z"/></g><g id="g1274" transform="matrix(2.447 0 0 -2.447 98.857 45.644)"><path id="path1276" class="st1" d="M160.7-63.2c0 3.2-.6 5.6-1.9 7.3-1.2 1.7-3 2.6-5.3 2.6-2.2 0-4-.9-5.2-2.6-1.2-1.6-1.7-4-1.7-7.3 0-3.1.6-5.4 1.9-7 1.2-1.7 3-2.6 5.3-2.6 2.1 0 3.8.9 5.1 2.6 1.2 1.8 1.8 4.1 1.8 7M146.6-86c0-1.2-.5-2.2-1.4-3-.8-.7-1.9-1.1-3-1.1h-4.1v29.3c0 5.7 1.9 9.3 5.1 11.7 2.3 1.7 5.8 3.4 12.7 3.1 3.6-.2 7-1.7 9.3-4.5 2.8-3.4 4-7.2 4-12.2 0-5.1-1.2-9.3-3.7-12.5-2.5-3.1-5.7-4.6-9.5-4.6-2.1 0-3.9.4-5.4 1.1-1.7.8-3 2.1-4 3.8V-86z"/></g><g id="g1278" transform="matrix(2.447 0 0 -2.447 120.682 45.647)"><path id="path1280" class="st1" d="M202.3-63.2c0-5.6 1.6-8.7 4.9-9.3 3.2-.6 5.6.1 7.2 2.3.7.9 1.3 2.3 1.6 4.2.3 1.9.3 3.8.1 5.7-.3 1.9-1 3.5-2 5-1.1 1.5-2.6 2.2-4.6 2.2-2.8 0-4.6-1-5.6-3.1-1.1-2.1-1.6-4.4-1.6-7m13.8-14v2.1c-1.5-2.3-3.4-3.7-5.9-4.3-2.5-.6-4.9-.4-7.4.6-2.4 1-4.5 2.8-6.3 5.4-1.7 2.7-2.6 6.1-2.6 10.4 0 5 1.2 9.1 3.5 12.3 2.3 3.1 6 4.6 11.1 4.7 5 .1 8-1 10.8-3.2 3.1-2.4 5-6 5-11.7v-17.2c0-5.5-3.8-15.6-15.8-14.8-7.4.5-11.6 3.6-13.9 10.5h8.9c.7-1.1 1.6-2 3-2.6 1.3-.6 2.7-.8 4-.5 1.3.3 2.6 1.1 3.7 2.4 1.2 1.3 1.8 3.3 1.9 5.9"/></g><g id="g1282" transform="matrix(2.447 0 0 -2.447 112.153 47.114)"><path id="path1284" class="st1" d="M186-66c-.1-2.8-.9-4.7-2.4-5.8-1.5-1.1-3.2-1.6-5.1-1.6-1.2 0-2.1.3-3 1-.8.6-1.2 1.7-1.2 3.1 0 1.6.7 2.8 2 3.6.8.4 2.1.8 3.9 1.1l1.9.4c1 .2 1.7.4 2.2.6.6.2 1.1.5 1.6.8V-66zm4.3 18.3c-2.7 1.4-5.9 2.1-9.4 2.1-5.4 0-9.2-1.4-11.5-4.2-1.4-1.8-2.2-4.1-2.4-6.9h8.1c.2 1.2.6 2.2 1.2 2.9.8 1 2.3 1.5 4.3 1.5 1.8 0 3.2-.2 4.1-.8.9-.5 1.4-1.4 1.4-2.7 0-1.1-.6-1.9-1.8-2.4-.7-.3-1.8-.5-3.4-.7l-2.9-.3c-3.3-.4-5.7-1.1-7.4-2.1-3.1-1.8-4.6-4.6-4.6-8.6 0-3 1-5.4 2.9-7 1.9-1.7 4.3-2.4 7.2-2.5 18.3-.8 18.1 9.7 18.3 11.8v12.1c0 3.8-1.4 6.4-4.1 7.8"/></g><g id="g1286" transform="matrix(2.447 0 0 -2.447 141.132 48.744)"><path id="path1288" class="st1" d="M241.2-69.1c-1.3-1.7-3.2-2.6-5.6-2.6-2.4 0-4.3.9-5.6 2.6-1.3 1.7-2 4.2-2 7.4s.7 5.7 2 7.4c1.3 1.7 3.2 2.6 5.6 2.6 2.5 0 4.3-.9 5.6-2.6 1.3-1.7 2-4.2 2-7.4s-.7-5.7-2-7.4m6.7 19.4c-2.7 3.4-6.8 5.1-12.3 5.1-5.5 0-9.6-1.7-12.3-5.1-2.7-3.4-4.1-7.4-4.1-12 0-4.7 1.3-8.7 4.1-12 2.7-3.3 6.8-5 12.3-5 5.5 0 9.6 1.7 12.3 5 2.7 3.3 4 7.3 4 12 .1 4.6-1.3 8.6-4 12"/></g></g></svg>